<?xml version="1.0" standalone="no"?>
<!DOCTYPE svg PUBLIC "-//W3C//DTD SVG 20010904//EN"
 "http://www.w3.org/TR/2001/REC-SVG-20010904/DTD/svg10.dtd">
<svg version="1.0" xmlns="http://www.w3.org/2000/svg"
 width="1080.000000pt" height="1080.000000pt" viewBox="0 0 1080.000000 1080.000000"
 preserveAspectRatio="xMidYMid meet">
<metadata>
Created by potrace 1.16, written by Peter Selinger 2001-2019
</metadata>
<g transform="translate(0.000000,1080.000000) scale(0.100000,-0.100000)"
fill="#000000" stroke="none">
<path d="M5242 9540 c-40 -5 -76 -11 -79 -14 -4 -3 3 -115 15 -248 11 -134 19
-244 17 -246 -1 -2 -103 101 -226 228 l-224 232 -78 -4 c-42 -3 -79 -7 -82
-10 -5 -4 63 -831 68 -834 5 -3 182 17 185 21 2 2 -5 113 -17 246 -12 133 -19
244 -17 246 2 2 105 -101 230 -228 l226 -232 77 7 c42 3 78 8 80 9 1 2 -13
181 -32 398 -19 217 -35 404 -35 417 0 15 -6 22 -17 21 -10 -1 -51 -5 -91 -9z"/>
<path d="M5774 9300 c-160 -33 -264 -165 -264 -333 1 -194 157 -327 385 -328
64 0 95 5 134 21 76 33 78 40 35 104 -20 31 -38 56 -39 56 -1 0 -19 -7 -38
-15 -20 -8 -64 -15 -99 -15 -100 0 -174 47 -193 123 -9 34 -22 35 250 -7 121
-19 223 -31 227 -27 15 13 20 119 8 174 -21 105 -109 201 -209 231 -67 20
-148 26 -197 16z m149 -151 c39 -20 76 -61 88 -96 6 -19 8 -37 5 -40 -6 -6
-297 34 -305 43 -10 10 24 58 58 81 38 26 116 31 154 12z"/>
<path d="M6330 9216 c0 -2 25 -85 55 -186 30 -101 55 -187 55 -191 0 -4 -75
-56 -167 -115 -93 -59 -169 -108 -171 -109 -5 -4 170 -65 185 -65 8 0 40 17
71 38 31 22 75 51 98 65 l41 25 33 -117 32 -117 99 -36 c80 -29 99 -32 95 -19
-12 40 -108 355 -112 366 -3 7 29 34 78 66 46 29 121 77 168 107 l84 55 -93
34 -93 33 -95 -61 c-52 -34 -98 -57 -103 -53 -4 5 -20 52 -35 104 -14 52 -30
98 -33 102 -7 7 -192 78 -192 74z"/>
<path d="M7145 8955 c-20 -36 -38 -65 -40 -65 -3 0 -19 9 -37 20 -18 11 -37
20 -43 20 -5 0 -25 -27 -43 -59 l-32 -60 40 -22 c22 -13 40 -27 40 -31 0 -5
-28 -57 -61 -115 -34 -58 -70 -124 -80 -147 -22 -48 -24 -124 -6 -169 17 -38
81 -98 137 -127 45 -23 125 -37 133 -24 2 5 8 37 12 72 7 59 6 62 -15 62 -36
0 -77 28 -88 60 -10 26 -7 38 21 93 73 139 118 208 130 199 7 -5 37 -23 68
-40 l57 -32 36 62 c29 47 34 63 24 70 -7 4 -39 23 -70 40 l-57 32 35 61 c19
34 34 67 34 73 0 9 -138 92 -153 92 -3 0 -22 -29 -42 -65z"/>
<path d="M3385 8829 c-47 -44 -85 -103 -85 -136 -1 -16 -3 -15 -20 5 -10 12
-20 28 -22 34 -3 8 -32 -5 -81 -36 -50 -30 -75 -52 -70 -59 122 -201 337 -531
343 -530 5 2 41 23 80 48 47 30 68 50 64 58 -4 6 -45 71 -90 143 -102 161
-114 196 -89 260 12 33 30 55 61 77 24 17 44 33 44 36 0 3 -20 37 -44 75 l-44
68 -47 -43z"/>
<path d="M4095 8688 c-37 -20 -55 -51 -55 -98 0 -52 18 -83 60 -105 37 -19 64
-19 104 0 79 38 87 148 14 199 -26 18 -94 21 -123 4z"/>
<path d="M7927 8502 c-26 -26 -47 -53 -47 -58 0 -6 45 -53 100 -104 55 -50
100 -95 100 -99 0 -15 -292 -312 -321 -326 -89 -47 -179 26 -183 147 l-1 49
-35 -5 c-19 -3 -56 -8 -82 -11 l-48 -6 0 -44 c0 -106 89 -238 202 -300 44 -24
65 -30 118 -29 106 0 136 22 385 275 l218 223 -172 168 c-95 92 -175 168 -179
168 -4 0 -29 -22 -55 -48z"/>
<path d="M2879 8429 c-103 -16 -216 -105 -266 -209 -36 -74 -39 -191 -6 -262
47 -102 159 -189 264 -203 57 -8 156 15 219 52 105 62 200 191 200 274 0 34
-2 37 -37 43 -21 3 -52 6 -70 6 -29 0 -33 -4 -42 -38 -21 -76 -104 -154 -178
-168 -35 -7 -113 10 -113 24 0 4 79 79 175 165 96 87 175 163 175 168 0 23
-78 91 -134 118 -68 33 -119 41 -187 30z m92 -165 c17 -8 29 -18 27 -22 -2 -4
-54 -54 -116 -111 l-112 -103 -15 36 c-25 60 -15 108 33 160 51 54 125 71 183
40z"/>
<path d="M2350 7881 c-56 -18 -108 -52 -149 -96 -56 -61 -85 -126 -84 -192 l0
-52 -28 20 -28 20 -48 -66 c-26 -37 -48 -71 -48 -76 0 -9 694 -509 706 -509 5
0 78 98 102 136 5 9 -29 39 -108 95 -63 45 -115 86 -115 91 0 4 8 8 18 8 28 0
104 53 136 94 73 96 90 231 42 329 -31 65 -103 135 -176 172 -57 29 -171 42
-220 26z m139 -196 c97 -51 135 -149 91 -235 -51 -101 -174 -118 -266 -37 -47
40 -64 77 -64 134 0 121 130 196 239 138z"/>
<path d="M8165 7834 c-63 -41 -80 -70 -80 -139 0 -52 7 -76 53 -174 66 -139
64 -171 -8 -161 -45 6 -136 153 -147 238 -3 23 -10 42 -16 42 -37 0 -137 -26
-137 -35 0 -28 35 -126 66 -186 103 -196 274 -282 388 -195 83 63 87 142 13
302 -52 112 -58 148 -26 164 47 26 134 -69 167 -182 18 -63 20 -64 92 -47 74
16 71 12 54 71 -36 122 -126 246 -218 298 -69 40 -144 42 -201 4z"/>
<path d="M1927 7166 c-98 -36 -182 -131 -217 -244 -53 -170 5 -324 151 -402
54 -29 77 -35 145 -38 73 -4 89 -1 140 22 104 48 178 141 210 266 40 155 -30
305 -177 381 -56 29 -193 37 -252 15z m146 -177 c54 -15 114 -72 128 -122 30
-112 -69 -221 -185 -203 -129 21 -201 139 -147 244 42 81 108 108 204 81z"/>
<path d="M8915 7010 c-82 -27 -256 -83 -386 -125 l-236 -75 67 -209 c74 -228
102 -289 168 -363 55 -60 165 -117 245 -125 129 -13 271 41 360 137 78 83 101
146 101 275 1 97 -1 107 -68 318 -52 163 -73 217 -85 217 -9 0 -83 -23 -166
-50z m122 -286 c36 -113 42 -203 18 -262 -54 -129 -242 -193 -367 -125 -27 15
-62 45 -78 67 -28 37 -110 260 -100 269 9 9 475 155 485 153 5 -1 24 -47 42
-102z"/>
<path d="M1312 6491 c-18 -63 -34 -142 -31 -145 2 -2 195 -51 429 -108 293
-73 427 -102 431 -94 10 17 43 165 38 170 -2 2 -196 50 -430 108 l-427 105
-10 -36z"/>
<path d="M1660 6091 c-87 -27 -164 -95 -203 -179 -17 -38 -21 -66 -22 -152 0
-95 3 -110 27 -155 35 -68 92 -123 158 -154 74 -34 201 -37 271 -5 176 81 258
336 168 520 -34 71 -41 72 -104 24 -30 -23 -55 -44 -55 -46 0 -1 10 -19 22
-40 25 -42 29 -126 9 -186 -14 -43 -82 -108 -112 -108 -20 0 -21 4 -15 53 16
142 37 411 32 423 -6 15 -130 19 -176 5z m56 -203 c-7 -52 -26 -245 -26 -264
0 -22 -73 18 -94 51 -53 81 -18 203 69 241 51 22 57 19 51 -28z"/>
<path d="M8808 6026 c-119 -26 -202 -105 -239 -228 -38 -126 -10 -288 66 -374
l34 -39 51 51 51 51 -33 53 c-29 47 -33 61 -33 124 0 57 5 78 23 109 21 32 77
75 87 65 4 -3 35 -412 35 -453 0 -24 3 -25 55 -25 109 0 216 64 270 161 28 51
30 61 30 164 0 92 -4 118 -22 157 -65 140 -222 218 -375 184z m193 -199 c49
-33 71 -80 67 -147 -3 -35 -11 -66 -23 -82 -21 -28 -80 -66 -90 -57 -5 6 -25
219 -25 277 0 40 21 42 71 9z"/>
<path d="M1415 5299 c3 -41 8 -81 11 -89 2 -10 76 -36 221 -79 120 -35 222
-66 226 -69 5 -2 -85 -54 -198 -115 l-207 -112 7 -75 c12 -133 -23 -139 322
53 l305 170 -6 56 c-4 31 -9 74 -12 97 l-6 40 -312 93 c-172 50 -323 95 -335
98 -23 6 -23 6 -16 -68z"/>
<path d="M8980 5236 c-124 -34 -270 -75 -326 -90 l-101 -28 -12 -95 c-7 -52
-11 -96 -9 -98 11 -10 591 -345 597 -345 5 0 13 37 18 83 9 71 8 84 -6 95 -9
7 -98 61 -198 119 -101 58 -183 109 -183 112 0 3 93 31 208 60 114 30 214 58
223 62 12 6 19 29 24 76 3 37 9 78 12 91 3 15 1 22 -8 21 -8 0 -115 -29 -239
-63z"/>
<path d="M2011 4635 c-17 -30 -31 -58 -31 -63 0 -5 14 -19 31 -31 63 -46 101
-190 68 -254 -13 -26 -50 -67 -59 -67 -3 0 -40 104 -80 231 -73 228 -74 230
-100 224 -55 -13 -130 -55 -167 -92 -65 -65 -88 -123 -88 -223 0 -74 4 -93 31
-150 42 -90 84 -134 162 -172 208 -103 453 38 469 270 6 78 -15 172 -55 245
-27 50 -114 137 -137 137 -7 0 -27 -25 -44 -55z m-151 -292 c24 -76 45 -144
48 -150 7 -20 -58 -16 -98 6 -95 50 -108 202 -24 266 10 8 22 15 25 15 3 0 25
-62 49 -137z"/>
<path d="M8600 4605 c-133 -44 -235 -191 -248 -357 -5 -67 11 -152 30 -164 5
-4 39 6 74 21 51 22 64 31 58 44 -13 33 -16 97 -5 137 22 83 80 142 148 151
l41 5 -79 -228 c-43 -126 -79 -232 -79 -235 0 -4 25 -14 56 -24 74 -23 192
-17 249 13 58 30 120 98 152 167 25 53 28 72 28 155 0 83 -3 101 -27 145 -33
63 -104 129 -166 156 -62 27 -173 34 -232 14z m248 -239 c17 -19 33 -48 37
-64 14 -67 -36 -161 -102 -188 -34 -14 -83 -19 -83 -8 0 5 60 184 95 282 7 20
21 14 53 -22z"/>
<path d="M8226 3988 c-27 -42 -70 -137 -65 -143 10 -9 767 -405 776 -405 4 0
27 36 51 79 l43 79 -158 83 c-87 45 -263 138 -392 206 -128 68 -235 123 -237
123 -2 0 -10 -10 -18 -22z"/>
<path d="M2088 3960 c-119 -30 -248 -134 -295 -237 -49 -107 -43 -252 17 -373
39 -81 224 -380 234 -380 5 0 168 97 362 216 l352 216 -65 107 c-37 58 -90
144 -119 191 -80 129 -160 204 -264 244 -53 21 -169 29 -222 16z m218 -208
c54 -28 93 -72 158 -177 30 -49 54 -90 53 -91 -32 -27 -433 -264 -442 -261
-12 5 -83 120 -119 192 -28 57 -27 157 1 210 35 66 103 120 183 146 38 13 123
3 166 -19z"/>
<path d="M8103 3642 c-103 -37 -174 -102 -228 -211 -33 -64 -43 -158 -26 -228
24 -99 121 -199 225 -233 66 -21 157 -15 225 15 75 34 161 122 199 202 36 78
38 203 5 275 -67 146 -256 231 -400 180z m169 -198 c58 -41 80 -75 86 -133 6
-68 -29 -130 -91 -160 -56 -27 -82 -26 -145 5 -65 32 -103 80 -109 138 -7 58
1 87 34 127 56 67 150 76 225 23z"/>
<path d="M7463 3307 c-34 -29 -62 -56 -62 -62 0 -5 40 -57 90 -115 l91 -104
-54 -11 c-67 -13 -115 -43 -172 -106 -54 -60 -76 -121 -76 -208 0 -84 37 -165
106 -235 126 -126 296 -135 435 -25 47 37 99 122 99 162 0 32 13 35 34 6 17
-24 20 -23 94 39 29 25 52 51 50 57 -4 19 -551 654 -563 654 -5 0 -38 -23 -72
-52z m261 -451 c66 -50 98 -134 76 -200 -14 -45 -79 -103 -124 -111 -140 -27
-270 152 -193 265 60 90 160 109 241 46z"/>
<path d="M2955 3017 c-68 -23 -100 -44 -152 -101 -74 -81 -97 -134 -97 -231 0
-65 4 -89 24 -130 48 -97 145 -171 240 -182 l49 -6 -95 -116 c-51 -63 -94
-118 -94 -121 1 -6 126 -104 139 -108 7 -2 527 631 554 674 5 8 -16 32 -60 68
l-68 56 -21 -25 c-21 -27 -34 -24 -34 7 0 57 -94 163 -175 199 -58 25 -158 33
-210 16z m202 -193 c69 -52 92 -138 55 -210 -24 -47 -67 -89 -105 -103 -93
-36 -198 22 -221 122 -15 61 33 152 102 195 46 29 128 26 169 -4z"/>
<path d="M6908 2607 c-79 -27 -166 -84 -203 -133 -25 -32 -55 -94 -55 -112 0
-5 26 -16 58 -26 31 -10 62 -21 69 -23 6 -2 14 5 18 17 20 62 132 140 203 140
38 0 92 -20 110 -42 11 -14 -15 -30 -198 -129 -238 -127 -230 -117 -169 -206
64 -93 157 -137 276 -132 189 9 337 156 336 334 -1 82 -20 139 -68 205 -87
119 -226 158 -377 107z m273 -386 c-14 -48 -67 -97 -122 -111 -34 -10 -50 -9
-84 5 -24 8 -50 24 -59 34 -17 18 -14 21 71 67 48 26 111 60 138 76 l50 28 9
-30 c6 -20 5 -44 -3 -69z"/>
<path d="M3592 2589 c-20 -6 -32 -15 -29 -22 2 -7 12 -37 20 -68 l17 -55 62 0
c110 1 206 -70 223 -165 4 -22 3 -39 -4 -43 -7 -5 -334 147 -434 201 -4 3 -19
-22 -34 -53 -102 -224 48 -458 302 -472 102 -5 174 20 239 83 125 121 141 301
40 438 -84 115 -280 191 -402 156z m101 -395 c72 -37 134 -68 137 -71 9 -9
-50 -52 -85 -62 -87 -24 -187 41 -201 131 -6 36 -1 68 11 68 3 0 65 -30 138
-66z"/>
<path d="M6418 2382 c-42 -15 -79 -30 -82 -33 -3 -3 17 -73 45 -155 62 -183
68 -243 27 -296 -18 -23 -45 -43 -75 -54 -27 -10 -50 -19 -52 -20 -1 -2 9 -39
24 -83 l27 -81 36 15 c52 22 97 59 123 102 15 24 24 32 27 22 3 -8 9 -24 13
-36 l8 -22 83 28 c46 16 82 33 82 37 -4 25 -199 604 -204 603 -3 0 -40 -13
-82 -27z"/>
<path d="M4367 2278 c-29 -46 -398 -751 -395 -754 8 -7 174 -31 180 -26 3 4
70 128 149 277 l143 270 43 -300 c24 -165 45 -305 47 -311 4 -10 172 -41 180
-33 2 2 68 125 147 273 79 147 144 264 146 260 1 -5 21 -142 44 -304 22 -162
42 -296 44 -298 5 -6 186 -34 191 -30 6 7 -121 856 -129 865 -4 3 -39 12 -79
19 -133 24 -107 48 -264 -245 -76 -143 -140 -259 -141 -258 0 1 -20 133 -43
292 -24 160 -44 291 -45 293 -3 4 -167 32 -187 32 -10 0 -24 -10 -31 -22z"/>
<path d="M5624 2186 c-29 -29 -34 -41 -34 -81 0 -40 5 -52 34 -81 26 -26 42
-34 70 -34 49 0 92 23 111 60 42 82 -14 170 -111 170 -28 0 -44 -8 -70 -34z"/>
</g>
</svg>
